<svg xmlns="http://www.w3.org/2000/svg" width="1440" height="900" viewBox="0 0 1440 900" role="img" aria-labelledby="title desc">
  <title id="title">AI Studio desktop mockup</title>
  <desc id="desc">Desktop AI Studio workspace with intent selection, target summary, generation jobs, generated assets, and proposal review.</desc>
  <rect width="1440" height="900" fill="#071018"/>
  <rect x="0" y="0" width="244" height="900" fill="#0d1722"/>
  <text x="24" y="38" fill="#f6ead5" font-family="Segoe UI, Arial" font-size="24" font-weight="700">OpenTabletop</text>
  <text x="24" y="62" fill="#8ea2b8" font-family="Segoe UI, Arial" font-size="12">API-first VTT engine</text>
  <rect x="20" y="94" width="204" height="46" rx="8" fill="#111d2a" stroke="#d6a854"/>
  <text x="42" y="123" fill="#f6ead5" font-family="Segoe UI, Arial" font-size="15">Ember Vault</text>
  <text x="24" y="188" fill="#8ea2b8" font-family="Segoe UI, Arial" font-size="12">WORKSPACE</text>
  <rect x="20" y="206" width="204" height="42" rx="8" fill="#101a25"/>
  <text x="44" y="232" fill="#aebdd0" font-family="Segoe UI, Arial" font-size="14">Live Table</text>
  <rect x="20" y="256" width="204" height="42" rx="8" fill="#101a25"/>
  <text x="44" y="282" fill="#aebdd0" font-family="Segoe UI, Arial" font-size="14">Prep</text>
  <rect x="20" y="306" width="204" height="42" rx="8" fill="#1b2734" stroke="#d6a854"/>
  <text x="44" y="332" fill="#f6ead5" font-family="Segoe UI, Arial" font-size="14" font-weight="700">AI Studio</text>
  <rect x="20" y="356" width="204" height="42" rx="8" fill="#101a25"/>
  <text x="44" y="382" fill="#aebdd0" font-family="Segoe UI, Arial" font-size="14">Manage</text>

  <rect x="244" y="0" width="1196" height="78" fill="#0b141d" stroke="#1e2d3c"/>
  <text x="282" y="31" fill="#8ea2b8" font-family="Segoe UI, Arial" font-size="12">AI STUDIO</text>
  <text x="282" y="58" fill="#f6ead5" font-family="Segoe UI, Arial" font-size="28" font-weight="800">Build, review, and apply generated table content</text>
  <rect x="1118" y="20" width="284" height="38" rx="8" fill="#121f2b" stroke="#33465b"/>
  <text x="1140" y="44" fill="#aebdd0" font-family="Segoe UI, Arial" font-size="13">Codex app-server: connected</text>

  <rect x="282" y="116" width="284" height="740" rx="10" fill="#101923" stroke="#243447"/>
  <text x="306" y="150" fill="#8ea2b8" font-family="Segoe UI, Arial" font-size="12">1. INTENT</text>
  <rect x="306" y="176" width="236" height="58" rx="8" fill="#1a2836" stroke="#d6a854"/>
  <text x="328" y="211" fill="#f6ead5" font-family="Segoe UI, Arial" font-size="15" font-weight="700">Encounter + Scene</text>
  <rect x="306" y="248" width="236" height="58" rx="8" fill="#0c141d" stroke="#26394d"/>
  <text x="328" y="283" fill="#aebdd0" font-family="Segoe UI, Arial" font-size="15">Generate Map</text>
  <rect x="306" y="320" width="236" height="58" rx="8" fill="#0c141d" stroke="#26394d"/>
  <text x="328" y="355" fill="#aebdd0" font-family="Segoe UI, Arial" font-size="15">Missing Token Art</text>
  <rect x="306" y="392" width="236" height="58" rx="8" fill="#0c141d" stroke="#26394d"/>
  <text x="328" y="427" fill="#aebdd0" font-family="Segoe UI, Arial" font-size="15">Selected Token Art</text>
  <rect x="306" y="490" width="236" height="300" rx="8" fill="#0b1118" stroke="#26394d"/>
  <text x="328" y="522" fill="#8ea2b8" font-family="Segoe UI, Arial" font-size="12">PROMPT</text>
  <text x="328" y="558" fill="#f6ead5" font-family="Segoe UI, Arial" font-size="16">Vault guardian ambush</text>
  <text x="328" y="588" fill="#aebdd0" font-family="Segoe UI, Arial" font-size="13">Creates a scene, map, tokens,</text>
  <text x="328" y="610" fill="#aebdd0" font-family="Segoe UI, Arial" font-size="13">and reviewable proposal.</text>
  <rect x="328" y="720" width="190" height="44" rx="8" fill="#d6a854"/>
  <text x="370" y="748" fill="#081018" font-family="Segoe UI, Arial" font-size="15" font-weight="800">Generate</text>

  <rect x="590" y="116" width="362" height="228" rx="10" fill="#101923" stroke="#243447"/>
  <text x="616" y="150" fill="#8ea2b8" font-family="Segoe UI, Arial" font-size="12">2. TARGETS</text>
  <text x="616" y="184" fill="#f6ead5" font-family="Segoe UI, Arial" font-size="22" font-weight="700">Opening Scene</text>
  <text x="616" y="215" fill="#aebdd0" font-family="Segoe UI, Arial" font-size="14">Current scene will receive generated map</text>
  <rect x="616" y="244" width="144" height="64" rx="8" fill="#0b1118" stroke="#26394d"/>
  <text x="636" y="272" fill="#8ea2b8" font-family="Segoe UI, Arial" font-size="11">MISSING ART</text>
  <text x="636" y="296" fill="#f6ead5" font-family="Segoe UI, Arial" font-size="22" font-weight="800">4</text>
  <rect x="780" y="244" width="144" height="64" rx="8" fill="#0b1118" stroke="#26394d"/>
  <text x="800" y="272" fill="#8ea2b8" font-family="Segoe UI, Arial" font-size="11">PROPOSALS</text>
  <text x="800" y="296" fill="#f6ead5" font-family="Segoe UI, Arial" font-size="22" font-weight="800">2</text>

  <rect x="590" y="368" width="362" height="488" rx="10" fill="#101923" stroke="#243447"/>
  <text x="616" y="402" fill="#8ea2b8" font-family="Segoe UI, Arial" font-size="12">3. GENERATION JOBS</text>
  <rect x="616" y="430" width="310" height="58" rx="8" fill="#151f2b" stroke="#2f4b61"/>
  <text x="638" y="455" fill="#f6ead5" font-family="Segoe UI, Arial" font-size="14" font-weight="700">Codex Tool Smoke Map</text>
  <text x="638" y="477" fill="#65d6b7" font-family="Segoe UI, Arial" font-size="12">Generating raster asset...</text>
  <rect x="616" y="506" width="310" height="58" rx="8" fill="#101923" stroke="#26394d"/>
  <text x="638" y="531" fill="#f6ead5" font-family="Segoe UI, Arial" font-size="14" font-weight="700">Four token portraits</text>
  <text x="638" y="553" fill="#aebdd0" font-family="Segoe UI, Arial" font-size="12">Queued behind map job</text>
  <rect x="616" y="602" width="310" height="210" rx="8" fill="#0b1118" stroke="#26394d"/>
  <text x="638" y="634" fill="#8ea2b8" font-family="Segoe UI, Arial" font-size="12">TRUST STATE</text>
  <text x="638" y="670" fill="#f6ead5" font-family="Segoe UI, Arial" font-size="15">No campaign state changes until</text>
  <text x="638" y="694" fill="#f6ead5" font-family="Segoe UI, Arial" font-size="15">the GM applies proposals.</text>

  <rect x="976" y="116" width="398" height="740" rx="10" fill="#101923" stroke="#243447"/>
  <text x="1002" y="150" fill="#8ea2b8" font-family="Segoe UI, Arial" font-size="12">4. GENERATED ASSETS</text>
  <rect x="1002" y="178" width="160" height="116" rx="8" fill="#233245" stroke="#40566d"/>
  <rect x="1188" y="178" width="160" height="116" rx="8" fill="#233245" stroke="#40566d"/>
  <rect x="1002" y="320" width="160" height="116" rx="8" fill="#233245" stroke="#40566d"/>
  <rect x="1188" y="320" width="160" height="116" rx="8" fill="#233245" stroke="#40566d"/>
  <text x="1002" y="480" fill="#8ea2b8" font-family="Segoe UI, Arial" font-size="12">5. REVIEW QUEUE</text>
  <rect x="1002" y="508" width="346" height="86" rx="8" fill="#0b1118" stroke="#d6a854"/>
  <text x="1024" y="538" fill="#f6ead5" font-family="Segoe UI, Arial" font-size="16" font-weight="700">Generated battlemap</text>
  <text x="1024" y="562" fill="#aebdd0" font-family="Segoe UI, Arial" font-size="13">Pending approval - updates scene background</text>
  <rect x="1024" y="620" width="128" height="38" rx="8" fill="#d6a854"/>
  <text x="1062" y="644" fill="#081018" font-family="Segoe UI, Arial" font-size="13" font-weight="800">Apply</text>
  <rect x="1166" y="620" width="128" height="38" rx="8" fill="#111923" stroke="#40566d"/>
  <text x="1210" y="644" fill="#f6ead5" font-family="Segoe UI, Arial" font-size="13">Reject</text>
</svg>
