<svg xmlns="http://www.w3.org/2000/svg" width="390" height="844" viewBox="0 0 390 844" role="img" aria-labelledby="title desc">
  <title id="title">Mobile AI Studio mockup</title>
  <desc id="desc">Mobile AI Studio workflow stacked with intent cards, target summary, job status, generated preview, and review actions.</desc>
  <rect width="390" height="844" fill="#071018"/>
  <rect x="0" y="0" width="390" height="74" fill="#0b141d" stroke="#1e2d3c"/>
  <text x="18" y="30" fill="#f6ead5" font-family="Segoe UI, Arial" font-size="20" font-weight="800">AI Studio</text>
  <text x="18" y="54" fill="#8ea2b8" font-family="Segoe UI, Arial" font-size="12">Ember Vault - Opening Scene</text>
  <rect x="18" y="92" width="354" height="48" rx="10" fill="#1a2836" stroke="#d6a854"/>
  <text x="42" y="122" fill="#f6ead5" font-family="Segoe UI, Arial" font-size="15" font-weight="700">Encounter + Scene</text>
  <rect x="18" y="152" width="169" height="48" rx="10" fill="#101923" stroke="#26394d"/>
  <text x="42" y="182" fill="#aebdd0" font-family="Segoe UI, Arial" font-size="14">Map</text>
  <rect x="203" y="152" width="169" height="48" rx="10" fill="#101923" stroke="#26394d"/>
  <text x="227" y="182" fill="#aebdd0" font-family="Segoe UI, Arial" font-size="14">Token Art</text>

  <rect x="18" y="224" width="354" height="130" rx="10" fill="#101923" stroke="#243447"/>
  <text x="40" y="256" fill="#8ea2b8" font-family="Segoe UI, Arial" font-size="12">TARGETS</text>
  <text x="40" y="288" fill="#f6ead5" font-family="Segoe UI, Arial" font-size="20" font-weight="800">Opening Scene</text>
  <text x="40" y="318" fill="#aebdd0" font-family="Segoe UI, Arial" font-size="13">4 missing token portraits</text>
  <text x="40" y="338" fill="#aebdd0" font-family="Segoe UI, Arial" font-size="13">Map proposal will update background</text>

  <rect x="18" y="374" width="354" height="126" rx="10" fill="#101923" stroke="#243447"/>
  <text x="40" y="406" fill="#8ea2b8" font-family="Segoe UI, Arial" font-size="12">GENERATION JOBS</text>
  <rect x="40" y="426" width="310" height="46" rx="8" fill="#151f2b" stroke="#2f4b61"/>
  <text x="58" y="454" fill="#65d6b7" font-family="Segoe UI, Arial" font-size="13">Generating map via Codex...</text>

  <rect x="18" y="520" width="354" height="188" rx="10" fill="#101923" stroke="#243447"/>
  <text x="40" y="552" fill="#8ea2b8" font-family="Segoe UI, Arial" font-size="12">GENERATED PREVIEW</text>
  <rect x="40" y="572" width="120" height="96" rx="8" fill="#233245" stroke="#40566d"/>
  <text x="184" y="604" fill="#f6ead5" font-family="Segoe UI, Arial" font-size="16" font-weight="800">Codex Tool Map</text>
  <text x="184" y="628" fill="#aebdd0" font-family="Segoe UI, Arial" font-size="12">Pending proposal</text>
  <text x="184" y="648" fill="#aebdd0" font-family="Segoe UI, Arial" font-size="12">Stored asset bytes</text>

  <rect x="18" y="728" width="168" height="50" rx="10" fill="#d6a854"/>
  <text x="78" y="759" fill="#081018" font-family="Segoe UI, Arial" font-size="15" font-weight="800">Apply</text>
  <rect x="204" y="728" width="168" height="50" rx="10" fill="#111923" stroke="#40566d"/>
  <text x="266" y="759" fill="#f6ead5" font-family="Segoe UI, Arial" font-size="15">Reject</text>
</svg>
